<?xml version="1.0" standalone="no"?>
<!DOCTYPE svg PUBLIC "-//W3C//DTD SVG 20010904//EN"
 "http://www.w3.org/TR/2001/REC-SVG-20010904/DTD/svg10.dtd">
<svg version="1.0" xmlns="http://www.w3.org/2000/svg"
 width="547.000000pt" height="442.000000pt" viewBox="0 0 547.000000 442.000000"
 preserveAspectRatio="xMidYMid meet">
<metadata>
Created by potrace 1.16, written by Peter Selinger 2001-2019
</metadata>
<g transform="translate(0.000000,442.000000) scale(0.100000,-0.100000)"
fill="#000000" stroke="none">
<path d="M2682 3983 c-243 -165 -463 -453 -566 -740 -28 -76 -76 -266 -76
-300 0 -15 13 -29 46 -47 26 -14 48 -26 49 -26 1 0 8 37 15 83 30 196 140 454
267 622 73 98 187 215 270 277 l52 40 68 -55 c254 -202 434 -482 512 -795 10
-42 22 -99 26 -125 3 -27 9 -47 13 -45 38 17 92 56 92 66 0 30 -42 196 -71
278 -82 234 -247 484 -420 634 -95 83 -200 160 -219 160 -9 0 -35 -12 -58 -27z"/>
<path d="M1199 2999 c-20 -20 -21 -28 -14 -123 19 -289 115 -568 275 -800 l56
-80 64 3 c36 1 66 4 68 6 2 2 -17 28 -42 59 -94 116 -191 293 -240 440 -49
148 -90 406 -64 406 51 0 207 -25 287 -44 328 -82 613 -273 822 -552 113 -151
221 -397 251 -573 11 -62 17 -77 46 -102 40 -35 43 -35 80 -4 24 20 32 39 46
111 94 472 414 864 863 1055 117 50 298 97 409 106 l84 6 0 -55 c0 -116 -52
-335 -112 -473 -44 -101 -110 -213 -179 -302 l-60 -78 67 -3 c59 -3 68 0 83
19 191 259 295 543 308 846 8 163 13 158 -142 150 -472 -25 -922 -283 -1190
-682 -70 -105 -147 -258 -183 -368 -17 -49 -32 -90 -34 -92 -2 -3 -17 35 -32
83 -78 242 -250 498 -452 674 -248 216 -545 343 -884 378 -137 14 -157 13
-181 -11z"/>
<path d="M3400 2494 c-54 -45 -55 -48 -82 -149 -45 -170 -119 -337 -202 -455
-18 -25 -35 -50 -39 -57 -6 -10 100 33 163 66 23 11 117 205 150 307 33 102
73 287 68 315 -2 15 -12 10 -58 -27z"/>
<path d="M2035 2488 c26 -167 90 -363 168 -510 33 -63 47 -80 76 -92 20 -8 62
-26 93 -40 l57 -25 -48 72 c-101 150 -163 285 -205 451 -23 87 -27 93 -78 138
-29 26 -57 48 -61 48 -5 0 -6 -19 -2 -42z"/>
<path d="M3675 1910 c-187 -20 -423 -91 -575 -172 -88 -48 -239 -149 -265
-178 -18 -20 -18 -22 17 -57 l37 -36 53 40 c83 64 164 112 272 164 350 166
764 182 1133 43 57 -21 181 -80 192 -90 15 -14 -186 -153 -308 -214 -118 -59
-297 -116 -426 -136 -84 -13 -148 -15 -275 -11 -191 6 -315 31 -477 95 l-100
39 60 -83 60 -83 79 -21 c138 -37 220 -50 364 -57 271 -12 518 39 756 158 117
58 161 85 258 160 160 123 183 156 138 199 -36 34 -274 146 -370 175 -197 59
-441 84 -623 65z"/>
<path d="M1480 1904 c-235 -43 -353 -80 -504 -155 -182 -91 -200 -118 -123
-190 382 -360 949 -495 1479 -352 l99 26 39 56 c22 31 49 68 61 84 11 15 18
27 16 27 -3 0 -35 -14 -73 -30 -243 -109 -571 -143 -846 -86 -148 30 -239 61
-363 123 -142 71 -313 191 -301 212 18 28 234 114 371 147 534 128 1103 -59
1452 -478 87 -106 131 -173 191 -293 24 -49 50 -93 56 -97 22 -15 56 -8 71 15
13 21 13 29 1 63 -78 215 -328 518 -551 666 -172 115 -374 199 -580 244 -77
16 -432 29 -495 18z"/>
<path d="M1840 1693 c60 -48 216 -133 312 -171 181 -73 293 -94 313 -61 8 12
-173 116 -271 155 -93 38 -240 78 -324 89 l-55 7 25 -19z"/>
<path d="M3557 1695 c-152 -31 -321 -98 -456 -182 -68 -42 -72 -47 -56 -60 11
-7 29 -13 42 -13 39 0 254 75 343 120 81 41 240 137 240 146 0 7 -42 3 -113
-11z"/>
<path d="M2573 1283 c-65 -89 -116 -174 -159 -269 -40 -86 -37 -118 11 -130
34 -9 51 8 85 83 32 70 112 204 162 271 l32 42 -34 35 c-19 19 -37 35 -41 35
-4 0 -29 -30 -56 -67z"/>
</g>
</svg>
